<svg width="400" height="400" viewBox="0 0 400 400" xmlns="http://www.w3.org/2000/svg">
  <!-- Fondo -->
  <rect width="100%" height="100%" fill="white"/>

  <!-- Limón -->
  <ellipse cx="200" cy="200" rx="120" ry="80" fill="#f6e58d" stroke="#f9ca24" stroke-width="10"/>
  <path d="M160,160 Q200,140 240,160" fill="#f9ca24" />
  <path d="M160,240 Q200,260 240,240" fill="#f9ca24" />
  <circle cx="150" cy="180" r="10" fill="#badc58"/>
  <circle cx="250" cy="180" r="10" fill="#badc58"/>
  <circle cx="170" cy="220" r="10" fill="#badc58"/>
  <circle cx="230" cy="220" r="10" fill="#badc58"/>

  <!-- Notas Musicales -->
  <path d="M280,100 Q300,50 320,100 T360,100 Q380,50 400,100 T440,100" fill="none" stroke="#30336b" stroke-width="4"/>
  <circle cx="320" cy="100" r="10" fill="#30336b"/>
  <circle cx="400" cy="100" r="10" fill="#30336b"/>
  <path d="M80,100 Q100,50 120,100 T160,100 Q180,50 200,100 T240,100" fill="none" stroke="#30336b" stroke-width="4"/>
  <circle cx="120" cy="100" r="10" fill="#30336b"/>
  <circle cx="200" cy="100" r="10" fill="#30336b"/>

  <!-- Texto -->
  <text x="50%" y="350" font-family="Comic Sans MS, sans-serif" font-size="40" fill="#6ab04c" text-anchor="middle">
    Melodías del Limón
  </text>
</svg>
